<?xml version="1.0" encoding="UTF-8" standalone="no"?>
<!-- Created with Inkscape (http://www.inkscape.org/) -->

<svg
   xmlns:dc="http://purl.org/dc/elements/1.1/"
   xmlns:cc="http://creativecommons.org/ns#"
   xmlns:rdf="http://www.w3.org/1999/02/22-rdf-syntax-ns#"
   xmlns:svg="http://www.w3.org/2000/svg"
   xmlns="http://www.w3.org/2000/svg"
   xmlns:sodipodi="http://sodipodi.sourceforge.net/DTD/sodipodi-0.dtd"
   xmlns:inkscape="http://www.inkscape.org/namespaces/inkscape"
   width="3450"
   height="3450"
   id="svg3185"
   version="1.1"
   inkscape:version="0.92.1 r15371"
   inkscape:export-filename="/home/john/workspace/inls500/assets/img/500rawicon.png"
   inkscape:export-xdpi="27.83"
   inkscape:export-ydpi="27.83"
   sodipodi:docname="500icon.svg"
   viewBox="0 0 689.99998 689.99998">
  <defs
     id="defs3187" />
  <sodipodi:namedview
     id="base"
     pagecolor="#ffffff"
     bordercolor="#666666"
     borderopacity="1.0"
     inkscape:pageopacity="0.0"
     inkscape:pageshadow="2"
     inkscape:zoom="0.2437556"
     inkscape:cx="528.79219"
     inkscape:cy="1670.3858"
     inkscape:current-layer="layer2"
     showgrid="true"
     inkscape:document-units="px"
     inkscape:grid-bbox="true"
     inkscape:window-width="1680"
     inkscape:window-height="1013"
     inkscape:window-x="1366"
     inkscape:window-y="0"
     inkscape:window-maximized="1"
     fit-margin-top="0"
     fit-margin-left="0"
     fit-margin-right="0"
     fit-margin-bottom="0"
     scale-x="0.2" />
  <metadata
     id="metadata3190">
    <rdf:RDF>
      <cc:Work
         rdf:about="">
        <dc:format>image/svg+xml</dc:format>
        <dc:type
           rdf:resource="http://purl.org/dc/dcmitype/StillImage" />
        <dc:title />
      </cc:Work>
    </rdf:RDF>
  </metadata>
  <g
     inkscape:groupmode="layer"
     id="layer2"
     inkscape:label="BG"
     transform="translate(315.42163,316.70325)">
    <rect
       style="color:#000000;display:inline;overflow:visible;visibility:visible;fill:#ffffff;fill-opacity:1;fill-rule:nonzero;stroke:none;stroke-width:6.68237162;stroke-miterlimit:4;stroke-dasharray:none;marker:none;enable-background:accumulate"
       id="rect4269"
       width="690"
       height="690"
       x="-315.42163"
       y="-316.70325"
       inkscape:export-filename="/home/john/workspace/inls500-clean/assets/img/500icon.png"
       inkscape:export-xdpi="8.3400002"
       inkscape:export-ydpi="8.3400002" />
    <path
       style="fill:none;fill-rule:evenodd;stroke:#ff0000;stroke-width:2.66666675;stroke-linecap:round;stroke-linejoin:round;stroke-miterlimit:4;stroke-dasharray:none;stroke-opacity:0"
       d="m -152.0622,-230.97527 184.287991,18.03733 -238.111991,47.94667 z"
       id="path4544"
       inkscape:connector-curvature="0"
       inkscape:export-xdpi="8.3400002"
       inkscape:export-ydpi="8.3400002" />
  </g>
  <g
     id="layer1"
     inkscape:label="Layer 1"
     inkscape:groupmode="layer"
     style="display:inline"
     transform="translate(315.42163,316.70325)">
    <path
       style="fill:#56a0d3;fill-opacity:1;stroke:#56a0d3;stroke-width:8;stroke-linecap:round;stroke-linejoin:round;stroke-miterlimit:4;stroke-dasharray:none;stroke-opacity:1"
       inkscape:connector-curvature="0"
       d="m 23.191091,-297.89795 c -88.17066,0 -142.378661,28.288 -177.109321,62.37868 0,0 -0.608,0.58666 -0.9173,1.46133 -0.64,1.74934 -0.8107,4.30934 2.77333,3.08267 75.498661,-31.69068 157.9946608,-11.82934 184.287991,18.03733 0.9173,1.376 0.085,1.728 -1.024,1.74934 -26.5600002,0.26667 -48.810671,-1.29067 -97.89867,5.57866 -26.53866,3.75467 -50.144001,7.60534 -70.080001,12.78934 -32.83199,8.544 -56.10665,19.21066 -69.10932,27.82933 -4.77867,2.592 -5.152,4.42667 -6.336,6.63467 -1.38667,4.26666 -1.22667,4.24533 -2.144,7.168 -1.62134,5.504 -2.45334,9.04533 -2.76267,10.88 -0.56533,3.328 3.08267,2.16533 4.98133,0.224 3.95734,-3.95734 14.78401,-13.52534 30.70934,-20.93867 16.20267,-7.54133 43.03999,-16.128 72.11732,-21.504 38.794671,-7.168 86.02667,-11.73333 129.216001,-11.82933 50.08,-0.128 94.954669,5.06666 132.501339,12.37333 38.14401,7.456 68.33067,17.792 87.82933,27.296 9.16268,4.45867 14.29334,8.544 20.448,13.77067 4.85334,4.96 5.14134,0.6827 5.06668,-0.608 0,0 -0.9173,-6.624 -9.04534,-21.568 -24.928,-45.80267 -91.50934,-134.80535 -233.504009,-134.80535"
       id="path9"
       inkscape:export-xdpi="8.3400002"
       inkscape:export-ydpi="8.3400002" />
    <path
       style="fill:#aaaaaa;fill-opacity:1;stroke:#aaaaaa;stroke-width:8;stroke-linecap:round;stroke-linejoin:round;stroke-miterlimit:4;stroke-dasharray:none;stroke-opacity:1"
       inkscape:connector-curvature="0"
       d="m -232.9369,291.68073 c 0,20.48 85.07734,62.45334 261.162661,62.45334 170.880009,0 261.120009,-41.984 261.120009,-62.45334 l -0.8747,-31.41334 c 0,0.6613 -0.128,-2.03734 -0.384,-1.33334 -0.288,-5.664 -9.33334,-6.79466 -36.93866,-7.168 l -0.6293,-17.41866 c 0,1.792 -5.824,5.57866 -9.46134,7.66934 -22.47466,12.992 -108.46933,32.33066 -216.010669,32.33066 -124.544,0 -211.733321,-25.84534 -225.482651,-40 l -0.2987,26.86934 c 40.992,29.28 167.25332,55.552 294.741321,42.00532 3.79734,-0.1388 5.088,-0.9067 8.938669,0.2027 1.04533,0.3093 4.544,3.392 -2.4,5.94134 -73.919999,24.43734 -256.47999,18.976 -333.79199,-39.712 l 0.352,22.03734"
       id="path11"
       inkscape:export-xdpi="8.3400002"
       inkscape:export-ydpi="8.3400002" />
    <path
       style="fill:#aaaaaa;fill-opacity:1;stroke:#aaaaaa;stroke-width:8;stroke-linecap:round;stroke-linejoin:round;stroke-miterlimit:4;stroke-dasharray:none;stroke-opacity:1"
       inkscape:connector-curvature="0"
       d="m 132.52443,-126.52727 -48.159999,-0.043 c -2.35734,-0.043 -3.392,1.16267 -3.43467,3.49867 v 5.39733 c -0.011,2.53867 1.088,3.66934 3.62667,3.69067 h 14.912 c 1.375999,-0.085 1.727999,0.5333 1.791999,0.7467 0.5867,1.504 -2.165339,2.752 -3.093339,3.37066 l -7.34933,4.78934 c -1.024,0.6293 -1.984,1.97333 -1.96267,4.59733 l -0.3093,345.01334 c 0.704,6.048 10.32533,6.624 20.831999,6.592 8.864,-0.043 19.296,-0.5227 20.39467,-6.42134 0,0 -0.288,-328.383996 0.021,-356.72533 0.043,-1.312 0.6293,-1.6 0.832,-1.728 0.3307,-0.2133 1.83467,-0.3307 1.83467,-0.3307 2.208,-0.085 3.37066,-1.16267 3.392,-3.34933 v -5.81334 c -0.085,-2.112 -1.46134,-3.22133 -3.328,-3.28533 z"
       id="path25"
       inkscape:export-xdpi="8.3400002"
       inkscape:export-ydpi="8.3400002" />
    <path
       style="fill:#aaaaaa;fill-opacity:1;stroke:#aaaaaa;stroke-width:8;stroke-linecap:round;stroke-linejoin:round;stroke-miterlimit:4;stroke-dasharray:none;stroke-opacity:1"
       inkscape:connector-curvature="0"
       d="m 53.420431,113.47272 1.14133,-2.304 h 3.25333 l -0.021,-2.15467 H -9.0645792 l -0.011,2.15467 h 3.56266 l 0.9813,2.09067 4.01066,8.40533 c 0,0 0.704,0.7573 1.58934,1.13067 0.8747,0.3627 2.624,0.5013 3.24266,0.5227 17.5573402,0.1493 13.7493402,-0.021 16.5226702,-0.021 1.29067,0.043 3.06133,0.064 3.936,1.11999 0.5867,0.736 1.06667,2.77334 -1.376,4.39466 -5.728,3.808 -15.296,10.05868 -19.7866702,13.00267 -0.5333,0.3093 -2.03733,1.312 -2.53866,2.53867 -0.544,1.39733 -0.448,2.44266 -0.448,2.44266 v 64.83203 l -5.68534,2.19732 c 0,0 -1.70666,12.928 0.256,14.26134 1.87734,1.26934 56.3733402,1.26934 58.2400002,0.085 1.87734,-1.20534 0.256,-14.58134 0.256,-14.58134 l -5.74933,-1.96266 v -87.04001 z"
       id="path27"
       inkscape:export-xdpi="8.3400002"
       inkscape:export-ydpi="8.3400002" />
    <path
       style="fill:#aaaaaa;fill-opacity:1;stroke:#aaaaaa;stroke-width:8;stroke-linecap:round;stroke-linejoin:round;stroke-miterlimit:4;stroke-dasharray:none;stroke-opacity:1"
       inkscape:connector-curvature="0"
       d="m 222.73243,-106.2393 -48.17066,-0.043 c -2.336,-0.043 -3.424,1.16267 -3.46666,3.52 v 5.376004 c 0,2.56 1.088,3.648 3.648,3.69066 h 14.93332 c 1.35468,-0.085 1.71734,0.544 1.77068,0.7467 0.5867,1.50401 -2.16534,2.75201 -3.104,3.37068 l -7.33868,4.78932 c -1.03466,0.6293 -2.00532,1.96268 -1.96266,4.62935 l -0.3093,311.039996 c 0.704,6.08 10.31466,6.624 20.81066,6.58132 8.87466,-0.021 19.296,-0.5013 20.42666,-6.41066 0,0 -0.2987,-294.432006 0.043,-322.784006 0,-1.312 0.5867,-1.6 0.7893,-1.728 0.3307,-0.2133 1.83468,-0.3307 1.83468,-0.3307 2.208,-0.085 3.392,-1.16267 3.41332,-3.34934 v -5.802654 c -0.085,-2.13334 -1.44,-3.232 -3.31732,-3.296 z"
       id="path29"
       inkscape:export-xdpi="8.3400002"
       inkscape:export-ydpi="8.3400002" />
    <path
       style="fill:#aaaaaa;fill-opacity:1;stroke:#aaaaaa;stroke-width:8;stroke-linecap:round;stroke-linejoin:round;stroke-miterlimit:4;stroke-dasharray:none;stroke-opacity:1"
       inkscape:connector-curvature="0"
       d="m -37.27824,-126.52727 -48.117329,-0.043 c -2.35734,0 -3.41334,1.184 -3.456,3.54134 v 5.376 c 0,2.53866 1.07733,3.66933 3.648,3.66933 h 14.90133 c 1.35467,-0.085 1.71733,0.5867 1.77067,0.7467 0.5867,1.504 -2.16534,2.76266 -3.08267,3.37066 l -7.33867,4.78934 c -1.04533,0.6293 -2.00533,2.00533 -1.984,4.62932 l -0.3093,345.04535 c 0.704,6.016 10.336,6.60266 20.832,6.53866 8.885329,0 19.295999,-0.5013 20.405329,-6.37866 0,0 -0.2667,-328.373346 0.043,-356.74667 0.011,-1.312 0.5973,-1.62134 0.8107,-1.74934 0.3413,-0.2133 1.83466,-0.3307 1.83466,-0.3307 2.208,-0.043 3.37067,-1.16267 3.40267,-3.328 v -5.81334 c -0.1067,-2.12266 -1.48267,-3.25333 -3.36,-3.31733 z"
       id="path31"
       inkscape:export-xdpi="8.3400002"
       inkscape:export-ydpi="8.3400002" />
    <path
       style="fill:#aaaaaa;fill-opacity:1;stroke:#aaaaaa;stroke-width:8;stroke-linecap:round;stroke-linejoin:round;stroke-miterlimit:4;stroke-dasharray:none;stroke-opacity:1"
       inkscape:connector-curvature="0"
       d="m -130.94224,-106.8366 -48.17066,-0.064 c -2.32533,0 -3.41333,1.20533 -3.456,3.54133 v 5.375994 c 0,2.53867 1.088,3.65868 3.648,3.65868 l 14.93334,0.043 c 1.35466,-0.128 1.71733,0.544 1.77066,0.7467 0.5867,1.48267 -2.16533,2.74133 -3.104,3.37068 l -7.33866,4.76799 c -1.04534,0.5973 -2.00534,1.984 -1.96267,4.59733 l -0.2987,311.104006 c 0.6933,6.02666 10.336,6.592 20.82134,6.58132 8.87465,-0.032 19.29599,-0.5547 20.41599,-6.42132 0,0 -0.288,-294.421336 0.043,-322.794676 0,-1.29066 0.576,-1.6 0.7893,-1.728 0.3307,-0.224 1.824,-0.352 1.824,-0.352 2.21866,-0.043 3.392,-1.12 3.424,-3.328 v -5.791994 c -0.1067,-2.12266 -1.48267,-3.25333 -3.33867,-3.30666 z"
       id="path33"
       inkscape:export-xdpi="8.3400002"
       inkscape:export-ydpi="8.3400002" />
    <text
       xml:space="preserve"
       style="font-style:normal;font-variant:normal;font-weight:bold;font-stretch:normal;font-size:128px;line-height:0%;font-family:Impact;-inkscape-font-specification:'Impact Bold';text-align:center;letter-spacing:0px;word-spacing:0px;text-anchor:middle;fill:#000000;fill-opacity:1;stroke:none;stroke-width:2.66666675;stroke-linecap:round;stroke-linejoin:round;stroke-miterlimit:4;stroke-dasharray:none"
       x="-156.96744"
       y="86.444588"
       id="text3764"
       inkscape:export-xdpi="8.3400002"
       inkscape:export-ydpi="8.3400002"><tspan
         sodipodi:role="line"
         id="tspan3766"
         x="-145.71744"
         y="86.444588"
         style="font-size:128px;line-height:1.25;stroke-width:2.66666675;stroke-linecap:round;stroke-linejoin:round;stroke-miterlimit:4;stroke-dasharray:none"> </tspan></text>
    <path
       style="fill:#aaaaaa;fill-opacity:1;stroke:#aaaaaa;stroke-width:8;stroke-linecap:round;stroke-linejoin:round;stroke-miterlimit:4;stroke-dasharray:none;stroke-opacity:1"
       inkscape:connector-curvature="0"
       d="m 38.519091,-151.40194 c 1.20534,1.16267 1.96267,1.00267 1.96267,1.00267 90.165329,-3.54133 141.824009,30.74133 146.208009,44.81067 l 36.04266,-0.6507 11.21066,-24.37333 c 0.6827,-2.016 0.3307,-5.00267 -0.384,-5.792 -10.83732,-12.04267 -101.57866,-37.96267 -211.082659,-37.96267 -116.84267,0 -190.933331,23.06133 -206.538661,34.624 0,0 -3.75467,2.25067 -3.85067,5.664 -0.064,1.57867 2.21867,5.99467 2.21867,5.99467 l 3.168,6.88 c 1.00267,2.00533 2.37867,1.87733 4.74667,0.5013 0,0 2.13333,-0.6613 2.53866,-2.05867 0.4267,-1.39733 -0.896,-3.808 -0.896,-3.808 -2.32533,-4.74666 0.7467,-5.376 0.9387,-5.46133 l 6.688,-3.04 c 3.17867,-0.9173 3.56267,0.768 4.62933,3.296 0,0 1.22667,3.49867 2.10134,4.04267 1.67466,1.04533 7.008,-2.00534 22.92265,-5.87734 1.07734,-0.2133 1.664,-0.3093 3.78667,-1.17333 1.54667,-0.6187 0.1707,-5.952 0.1707,-5.952 -0.5653,-2.66667 -1.792,-5.33333 4,-6.29333 l 9.96266,-1.984 c 4.62934,-1.22667 5.06667,1.184 5.62134,3.85066 0,0 0.288,4.04267 1.33333,5.70667 1.32267,2.13333 3.712,-1.248 34.080001,-4.49067 0,0 4.42667,-0.128 5.29067,-1.64266 0.9173,-1.6 0.1707,-5.19467 0.1707,-5.19467 -0.3307,-3.65867 -1.824,-6.35733 5.20534,-6.784 l 13.29066,-1.216 c 9.962669,-1.62133 8.266669,1.71733 8.629339,5.376 0,0 0.3413,3.95733 1.088,4.672 0.7467,0.7253 3.89333,0.6613 3.89333,0.6613 17.04533,-1.74933 26.56,-1.664 44.6506708,-2.44266 0,0 2.528,-0.021 3.46666,-1.06667 0.9067,-1.04533 0.6613,-2.16533 0.6613,-2.16533 0,-2.03734 -0.4373,-5.29067 0.8747,-6.70934 1.504,-1.55733 3.8400002,-0.8533 6.2080002,-0.8533 l 15.21067,-0.021 c 2.336,0 7.12533,-1.04534 8.48,0.6293 0.8853,1.088 0.608,7.54133 0.608,7.54133 0,0 -0.011,1.04534 0.6933,1.76 z"
       id="path7"
       inkscape:export-xdpi="8.3400002"
       inkscape:export-ydpi="8.3400002" />
  </g>
  <g
     inkscape:groupmode="layer"
     id="layer3"
     inkscape:label="Layer top"
     style="display:inline"
     transform="translate(315.42163,316.70325)">
    <path
       id="path4094"
       d="m 132.51846,-126.52407 -48.16,-0.043 c -2.355,-0.043 -3.39,1.165 -3.435,3.5 v 5.3975 c -0.011,2.54 1.09,3.67 3.625,3.69 h 14.912 c 1.375,-0.1 1.73,0.535 1.79,0.745 0.585,1.505 -2.165,2.75 -3.095,3.37 l -7.3495,4.79 c -1.025,0.63 -1.985,1.975 -1.96,4.595 l -0.3,345.0135 c 0.705,6.048 10.3255,6.624 20.832,6.592 8.864,-0.043 19.296,-0.52 20.3945,-6.4215 0,0 -0.3,-328.384003 0.021,-356.725 0.043,-1.31 0.63,-1.6 0.83,-1.73 0.35,-0.2 1.835,-0.35 1.835,-0.35 2.21,-0.1 3.37,-1.165 3.39,-3.35 v -5.8135 c -0.1,-2.11 -1.46,-3.22 -3.33,-3.285 z"
       inkscape:connector-curvature="0"
       style="fill:#000000;fill-opacity:1;stroke:#56a0d3;stroke-width:5.33333349;stroke-miterlimit:4;stroke-dasharray:none;stroke-opacity:1" />
    <path
       id="path4098"
       d="m 222.72278,-106.23743 -48.17049,-0.043 c -2.335,-0.043 -3.425,1.165 -3.465,3.52 v 5.376 c 0,2.559999 1.09,3.649999 3.64999,3.689999 h 14.93351 c 1.355,-0.1 1.72,0.545 1.77,0.745 0.585,1.505 -2.16501,2.75 -3.105,3.37 l -7.3385,4.789997 c -1.035,0.63 -2.005,1.96 -1.965,4.63 l -0.3,311.040004 c 0.705,6.08 10.3145,6.624 20.8105,6.581 8.875,-0.021 19.296,-0.5 20.427,-6.4105 0,0 -0.3,-294.432004 0.043,-322.784001 0,-1.31 0.585,-1.6 0.79,-1.73 0.35,-0.2 1.835,-0.35 1.835,-0.35 2.21,-0.1 3.39,-1.165 3.415,-3.349999 v -5.8025 c -0.1,-2.135 -1.44,-3.23 -3.315,-3.295 z"
       inkscape:connector-curvature="0"
       style="fill:#000000;fill-opacity:1;stroke:#56a0d3;stroke-width:5.33333349;stroke-miterlimit:4;stroke-dasharray:none;stroke-opacity:1" />
    <path
       id="path4100"
       d="m -81.1494,107.36061 -0.1,137.26949 c 0.705,6.016 10.336,6.6025 20.832,6.5385 8.885,0 19.296,-0.5 20.405,-6.3785 0,0 -0.25,-328.373499 0.043,-356.747 0.011,-1.31 0.6,-1.62 0.81,-1.75 0.35,-0.2 1.835,-0.35 1.835,-0.35 2.21,-0.043 3.37,-1.165 3.405,-3.33 v -5.8135 c -0.1,-2.12 -1.485,-3.255 -3.36,-3.315 h 0.001 l -48.1175,-0.043 c -2.355,0 -3.415,1.185 -3.455,3.54 v 5.376 c 0,2.54 1.075,3.67 3.65,3.67 h 14.9015 c 1.355,-0.1 1.715,0.585 1.77,0.745 0.585,1.505 -2.165,2.765 -3.08,3.37 l -7.339,4.79 c -1.045,0.63 -2.005,2.005 -1.985,4.63 l -0.655,166.429006 -51.906,-0.2 c 0,0 -0.25,-151.040005 -0.15,-158.133502 0,-1.29 0.57499,-1.6 0.79,-1.73 0.34999,-0.2 1.825,-0.35 1.825,-0.35 2.22,-0.043 3.39,-1.12 3.425,-3.33 v -5.792004 c -0.1,-2.12 -1.48501,-3.255 -3.34,-3.305 l -48.171,-0.05 c -2.325,0 -3.415,1.205 -3.455,3.54 v 5.376004 c 0,2.54 1.08999,3.66 3.65,3.66 l 14.9335,0.043 c 1.355,-0.15 1.72,0.545 1.77,0.745 0.585,1.485 -2.16501,2.739997 -3.105,3.369997 l -7.3385,4.77 c -1.045,0.595 -2.005,1.985 -1.96,4.595 l -0.3,311.103999 c 0.695,6.0265 10.336,6.592 20.8215,6.5815 8.8745,-0.032 19.296,-0.555 20.416,-6.4215 l -0.039,-123.11899 z"
       inkscape:connector-curvature="0"
       style="fill:#000000;fill-opacity:1;stroke:#56a0d3;stroke-width:5.33333349;stroke-miterlimit:4;stroke-dasharray:none;stroke-opacity:1"
       sodipodi:nodetypes="cccccccccccccsscccccccccccccccsccccccccccc" />
  </g>
  <g
     inkscape:groupmode="layer"
     inkscape:label="Layer 1 copy"
     id="g4086"
     transform="translate(315.42163,316.70325)" />
</svg>
